<?xml version="1.0" encoding="UTF-8"?>
<svg version="1.1" viewBox="0 0 1080 1080" width="50" height="50" xmlns="http://www.w3.org/2000/svg">
  <!-- Background with rounded corners, replacing the original path -->
  <rect x="0" y="0" width="1080" height="1080" rx="150" ry="150" fill="#fff"/>

  <!-- Foreground paths remain unchanged -->
  <path transform="translate(250,246)" d="m0 0h119l5 11 67 166 107 265 44 109 5 12v3h-138l-5-12-18-49-19-51h-215l-19 51-21 57-2 4h-139l32-80 191-473 5-12z" fill="#4A90E2"/>
  <path transform="translate(810,236)" d="m0 0h41l25 3 24 5 25 7 29 10 20 9 14 8 16 11-2 5-27 54-10 19-12 24-2 1-21-12-17-8-28-10-19-5-12-2-12-1h-13l-15 2-16 5-10 6-6 5-7 11-4 13v14l4 10 6 8 9 8 19 12 27 14 40 18 25 11 21 11 19 12 13 10 11 9 13 12 13 14 10 14 9 16 6 17 3 13 1 6v36l-4 27-6 21-9 21-9 15-9 12-11 12-13 11-21 13-21 10-19 7-23 6-22 4-19 2h-53l-27-3-31-6-28-8-22-9-34-17-17-10-12-8-10-8-6-5 8-14 17-29 15-25 19-32 5-8 4 2 20 15 16 10 32 17 21 9 19 6 15 3h31l19-3 12-4 10-5 10-8 7-11 3-9 1-7v-14l-3-10-6-10-9-9-21-14-16-9-31-15-28-13-24-12-18-11-15-11-13-11-14-14-10-13-9-14-9-19-5-15-3-17v-34l3-19 6-21 7-16 9-16 10-13 11-12 7-7 14-11 11-8 17-10 19-9 19-6 18-4z" fill="#FF7F50"/>
  <path transform="translate(309,421)" d="m0 0 2 1 18 47 20 52 21 55 3 10h-127l3-10 19-50 40-104z" fill="#fff"/>
</svg>
